<?xml version="1.0" encoding="utf-8"?>
<!-- Generator: Adobe Illustrator 19.1.0, SVG Export Plug-In . SVG Version: 6.00 Build 0)  -->
<svg version="1.1" id="Layer_1" xmlns="http://www.w3.org/2000/svg" xmlns:xlink="http://www.w3.org/1999/xlink" x="0px" y="0px"
	 viewBox="0 0 314.2 68.4" style="enable-background:new 0 0 314.2 68.4;" xml:space="preserve">
<style type="text/css">
	.st0{fill:#1DE9B6;}
	.st1{fill-rule:evenodd;clip-rule:evenodd;fill:#1DE9B6;}
	.st2{fill:#4193AC;}
</style>
<g>
	<g>
		<path class="st0" d="M40,14.1C29-2.4,6.9,7.3,6.9,25.3c0,12.2,11,20.9,19.3,27.5c8.6,6.8,11,9.1,13.8,11.9
			c2.8-2.8,5.1-5.2,13.8-11.9c8.4-6.4,19.3-15.4,19.3-27.6C73.1,7.3,51-2.4,40,14.1z M44.5,48.2L44.5,48.2h-8.8v-8.8h8.8V48.2z
			 M46.3,33.2L46.3,33.2H33.9V20.8h12.4L46.3,33.2z"/>
	</g>
	<g>
		<g>
			<polygon class="st1" points="179.3,15.8 179.3,21.8 185.3,21.8 185.3,15.8 185.3,15.8 			"/>
			<rect x="173.2" y="9.8" class="st1" width="6" height="6"/>
			<polygon class="st1" points="185.3,9.8 185.3,15.8 185.3,15.8 191.3,15.8 191.3,9.8 185.3,9.8 			"/>
			<polygon class="st1" points="185.3,9.8 185.3,3.7 179.3,3.7 179.3,9.8 185.3,9.8 			"/>
		</g>
		<g>
			<g>
				<g>
					<path class="st2" d="M171.1,46.5c-2.1,0-2.5-0.9-2.5-3.5V15.8h-12.9v6.6h3.7v21.1c0,9.1,5.2,10.3,10,10.3c0.8,0,1.4,0,2-0.1
						l0.8-0.1v-7.3h-0.3C171.6,46.5,171.4,46.5,171.1,46.5z"/>
				</g>
				<g>
					<polygon class="st2" points="188.6,26.4 175.7,26.4 175.7,33 179.4,33 179.4,47 176,47 176,53.6 192,53.6 192,47 188.6,47 
											"/>
				</g>
				<g>
					<path class="st2" d="M151.4,45.8V26.4h-12.8V33h3.7v4.9c0,4.1-2.1,8.3-5.7,8.3c-2.1,0-3-1.1-3-3.6V26.4h-12.8V33h3.7V44
						c0,7.6,4.1,10.2,8.9,10.2c3.5,0,5.8-1.3,7.2-2.6c0.8-0.8,1.5-1.6,2-2.6h0.1v0.3c0,0.2-0.1,0.3-0.1,0.5v0.7
						c0,1.8,1.3,3.1,3.8,3.1h8.4V47h-2.3C151.8,47,151.4,46.6,151.4,45.8z"/>
				</g>
				<g>
					<path class="st2" d="M115.5,35.9c0-7.6-4.3-10.2-9.8-10.2c-3.6,0-6.8,1.6-8.3,4.3h-0.1c0-0.2,0-0.4,0.1-0.6
						c0.1-0.4,0.1-1,0.1-1.7V15.8H84.5v6.6h3.7V47h-3.4v6.6h16V47h-3.4v-5.4c0-3.9,1.9-7.5,5.9-7.5c2.1,0,3,1.1,3,3.6v16h12.6V47
						h-3.4V35.9z"/>
				</g>
			</g>
		</g>
		<g>
			<path class="st0" d="M198.6,35c-0.2-0.6-0.5-0.8-1.2-0.8h-0.7v-7.6h5.8c1.9,0,3.2,0.8,3.7,2.2l4.1,12.1c0.6,1.7,1,4.3,1,4.3h0.1
				c0,0,0.4-2.6,1-4.3l4-12.1c0.5-1.4,1.8-2.2,3.7-2.2h5.3v7.6h-0.7c-0.6,0-1,0.3-1.3,0.8l-6.9,18.5h-11L198.6,35z"/>
			<path class="st0" d="M230.2,35.3c0-0.7-0.4-1.2-1.2-1.2h-2v-7.6h8.4c2.7,0,3.8,1.2,3.8,3.8v14.4c0,0.7,0.4,1.2,1.2,1.2h2v7.6H234
				c-2.7,0-3.8-1.2-3.8-3.8V35.3z M230.9,16.1h7.6v7.3h-7.6V16.1z"/>
			<path class="st0" d="M257.2,25.9c5.4,0,7.1,1.9,7.1,1.9h0.1c0,0-0.1-0.5-0.1-1.2v-1.8c0-0.7-0.4-1.2-1.2-1.2h-2v-7.6h8.4
				c2.7,0,3.8,1.2,3.8,3.8v24.9c0,0.7,0.4,1.2,1.2,1.2h2v7.6h-8.1c-2.6,0-3.5-1.3-3.5-2.6c0-0.2,0-0.5,0-0.5h-0.1
				c0,0-2.3,3.7-7.8,3.7c-7.3,0-12.1-5.8-12.1-14.1C244.9,31.5,250,25.9,257.2,25.9z M264.6,40c0-3.2-1.7-6.4-5.3-6.4
				c-2.8,0-5.3,2.3-5.3,6.4c0,4,2.1,6.7,5.3,6.7C262,46.7,264.6,44.7,264.6,40z"/>
			<path class="st0" d="M294.7,36.6h0.4v-0.3c0-2.6-1.2-3.5-3.5-3.5c-1.2,0-2.4,0.3-2.4,1.3v1.2h-8.4v-3c0-6,7.6-6.3,10.7-6.3
				c9.4,0,12.5,4.8,12.5,11v7.9c0,0.7,0.4,1.2,1.2,1.2h2v7.6h-7.9c-2.6,0-3.6-1.6-3.6-2.8c0-0.2,0-0.5,0-0.5h-0.1
				c0,0-1.9,3.9-7.5,3.9c-5,0-9.2-3.4-9.2-8.7C279,37.4,290.5,36.6,294.7,36.6z M290.7,47.2c2.4,0,4.5-2.6,4.5-4.8v-0.4h-0.8
				c-2.9,0-6.2,0.8-6.2,2.9C288.1,46.2,288.9,47.2,290.7,47.2z"/>
		</g>
	</g>
</g>
</svg>
